<?xml version="1.0" encoding="UTF-8" standalone="no"?>
<!-- Created with Inkscape (http://www.inkscape.org/) -->

<svg
   width="192"
   height="108"
   viewBox="0 0 50.8 28.575"
   version="1.1"
   id="svg1"
   xml:space="preserve"
   inkscape:export-filename="jinja_latex_inkscape.svg"
   inkscape:export-xdpi="96"
   inkscape:export-ydpi="96"
   xmlns:inkscape="http://www.inkscape.org/namespaces/inkscape"
   xmlns:sodipodi="http://sodipodi.sourceforge.net/DTD/sodipodi-0.dtd"
   xmlns:xlink="http://www.w3.org/1999/xlink"
   xmlns="http://www.w3.org/2000/svg"
   xmlns:svg="http://www.w3.org/2000/svg"><sodipodi:namedview
     id="namedview1"
     pagecolor="#ffffff"
     bordercolor="#666666"
     borderopacity="1.0"
     inkscape:showpageshadow="2"
     inkscape:pageopacity="0.0"
     inkscape:pagecheckerboard="0"
     inkscape:deskcolor="#d1d1d1"
     inkscape:document-units="mm"
     inkscape:zoom="5.7499844"
     inkscape:cx="122.43511"
     inkscape:cy="79.043693"
     inkscape:window-width="2560"
     inkscape:window-height="1351"
     inkscape:window-x="-9"
     inkscape:window-y="-9"
     inkscape:window-maximized="1"
     inkscape:current-layer="layer1" /><defs
     id="defs1"><linearGradient
       id="linearGradient6558"><stop
         style="stop-color:#575757;stop-opacity:1;"
         offset="0"
         id="stop6560" /><stop
         style="stop-color:#2f2f2f;stop-opacity:1;"
         offset="1"
         id="stop6562" /></linearGradient><radialGradient
       inkscape:collect="always"
       xlink:href="#linearGradient6558"
       id="radialGradient6564"
       cx="61.297768"
       cy="60.910988"
       fx="61.297768"
       fy="60.910988"
       r="44.688255"
       gradientTransform="matrix(1,0,0,0.945104,0,3.343747)"
       gradientUnits="userSpaceOnUse" /></defs><g
     inkscape:label="图层 1"
     inkscape:groupmode="layer"
     id="layer1"><g
       id="g2"
       transform="matrix(0.33653596,0,0,0.33653596,8.0267201,9.1629204)"><g
         inkscape:label="Layer 1"
         id="layer1-1"
         transform="matrix(0.25707369,0,0,0.25707369,-27.957551,-0.42085792)"><path
           style="font-style:normal;font-weight:normal;font-size:12px;font-family:'Bitstream Vera Sans';fill:#f4f4f4;fill-opacity:1;stroke:#e7e7e7;stroke-width:0.8;stroke-linecap:butt;stroke-linejoin:round;stroke-miterlimit:4;stroke-dasharray:none;stroke-opacity:1"
           d="m 165.36463,80.874808 v 0 H 153.32556 V 81.8344 h -5.67562 V 36.035583 h 17.71469 V 20.333129 c 5.21691,0.697954 7.7107,1.744785 7.48146,3.140492 -0.0574,0.581637 -0.63064,1.075973 -1.71985,1.483003 v 11.078959 h 17.97271 v 46.496703 h -5.76162 v -1.657478 h -12.21109 v 22.070672 h -5.76161 V 80.874808 M 153.32556,55.489173 v 0 h 12.03907 V 41.793146 h -12.03907 v 13.696027 m 17.80068,0 v 0 h 12.21109 V 41.793146 h -12.21109 v 13.696027 m 12.21109,5.844804 v 0 h -12.21109 v 13.696029 h 12.21109 V 61.333977 m -17.9727,0 v 0 h -12.03907 v 13.696029 h 12.03907 V 61.333977 m -32.50566,-1.919185 c 4.47172,3.722091 8.14072,8.520056 11.00721,14.393909 l -4.72964,3.576671 c -1.89187,-4.419927 -4.50034,-8.258302 -7.8254,-11.515132 v 37.07524 h -5.6756 V 68.57455 c -3.32512,3.373143 -7.10883,6.339157 -11.35118,8.89806 l -4.64367,-4.100084 c 11.86713,-6.28096 20.98243,-17.883314 27.34599,-34.807109 h -20.72447 v -5.844802 h 9.54533 V 20.333129 c 5.04491,0.697954 7.51007,1.715709 7.39545,3.053254 -0.0574,0.6398 -0.63064,1.163211 -1.71992,1.570241 v 7.763991 h 9.28736 l 2.83781,4.012854 c -2.9238,8.781791 -6.50687,16.342223 -10.74927,22.681323 m 121.25119,-9.944891 v 0 -29.136772 c 5.10227,0.697954 7.56739,1.715709 7.39546,3.053254 -0.0574,0.523486 -0.45863,0.959661 -1.2039,1.308534 -8e-5,6.9e-5 -8e-5,6.9e-5 0,0 v 0 l -0.51594,0.261707 v 24.513277 h 17.37074 v 5.75757 h -17.37074 v 38.558241 h 21.67038 v 5.844798 h -49.10238 v -5.844798 h 21.75638 V 55.227471 h -17.8867 v -5.75757 h 17.8867 m -28.54986,9.857653 c 5.56081,3.780244 10.06115,8.549139 13.50097,14.306681 l -4.2997,4.012844 c -3.15312,-5.466757 -6.93682,-9.712231 -11.35113,-12.736431 v 38.034832 h -5.6756 V 67.44049 c -4.81565,4.187341 -10.03262,7.589531 -15.65084,10.206589 l -4.21373,-4.449026 c 14.79091,-6.280952 26.14212,-17.825156 34.0535,-34.632636 h -26.57205 v -5.844802 h 12.64111 V 20.333129 c 5.04491,0.697954 7.51008,1.715709 7.39546,3.053254 -0.0574,0.6398 -0.63064,1.163211 -1.71992,1.570241 v 7.763991 h 12.55509 l 2.5798,4.012854 c -3.66905,8.781791 -8.08339,16.313142 -13.24296,22.594085"
           id="text4761" /><path
           style="font-style:normal;font-variant:normal;font-weight:normal;font-stretch:normal;font-size:44.0979px;line-height:125%;font-family:Candara;text-align:start;writing-mode:lr-tb;text-anchor:start;fill:#b41717;fill-opacity:1;stroke:#7f2828;stroke-width:1;stroke-linecap:butt;stroke-linejoin:miter;stroke-miterlimit:4;stroke-dasharray:none;stroke-opacity:1"
           d="m 149.14708,37.774469 c -0.16901,3.34343 -0.30182,7.049756 -0.39837,11.118987 -0.0724,4.069298 -0.36691,21.747872 -0.36687,26.630966 -4e-5,3.541373 -0.32596,6.466844 -0.97778,8.776413 -0.65187,2.309587 -1.67794,4.256236 -3.07821,5.839944 -1.37616,1.583715 -3.15063,2.760504 -5.32346,3.53036 -2.17286,0.769857 -4.78028,1.154796 -7.82225,1.154796 -2.34186,0 -4.44227,-0.230955 -6.30125,-0.692886 l 0.54321,-4.817119 c 1.71413,0.72587 3.50068,1.088804 5.35967,1.088803 2.07628,1e-6 3.88698,-0.263951 5.43213,-0.791857 1.56925,-0.549895 2.81261,-1.396743 3.73006,-2.540541 0.94154,-1.143787 1.60546,-2.551531 1.99176,-4.223235 0.41041,-1.671688 0.61562,-3.860289 0.61564,-6.565815 -2e-5,-9.986166 0.0772,-31.624028 -0.28495,-38.508816 h 6.88067 m 17.2379,42.958228 h -6.55474 c 0.33797,-4.399199 0.50699,-9.425285 0.50699,-15.078273 0,-6.356824 -0.42252,-11.690857 -1.2675,-16.002105 l 7.24284,-0.890836 c -0.28973,4.597196 -0.43458,10.228167 -0.43458,16.892941 0,5.279055 0.169,10.305141 0.50699,15.078273 m 1.52103,-41.242538 c -3e-5,1.121835 -0.39841,2.100656 -1.19511,2.936461 -0.79672,0.813895 -1.91935,1.220822 -3.3679,1.220779 -1.23128,4.3e-5 -2.197,-0.351895 -2.89712,-1.055804 -0.676,-0.725826 -1.014,-1.594668 -1.014,-2.606525 0,-1.099766 0.41043,-2.056585 1.23127,-2.870479 0.82084,-0.813811 1.95554,-1.220738 3.40412,-1.22078 1.18296,4.2e-5 2.11248,0.362972 2.78848,1.088798 0.70013,0.703917 1.05023,1.539764 1.05026,2.50755 m 38.82147,41.242538 h -6.59097 c 0.53112,-5.784948 0.79668,-12.097798 0.79669,-18.938575 -1e-5,-3.387366 -0.7605,-5.696945 -2.28146,-6.928751 -1.49687,-1.253741 -3.64555,-1.880624 -6.4461,-1.880657 -3.42833,3.3e-5 -6.59099,1.132821 -9.48811,3.398385 0,7.500662 0.0483,15.617188 0.14485,24.349598 h -6.59096 c 0.4104,-7.478639 0.61565,-12.889655 0.61565,-16.233065 0,-5.147043 -0.53117,-10.140139 -1.59344,-14.979293 l 6.37371,-0.824846 0.68805,4.025268 h 0.28972 c 3.57312,-2.947438 7.39972,-4.421169 11.47988,-4.421194 4.00766,2.5e-5 7.11,0.813887 9.30702,2.441551 2.19694,1.605745 3.29546,4.476216 3.29547,8.611445 -1e-5,0.417944 -0.0242,1.242799 -0.0724,2.474555 -0.0483,1.231797 -0.0725,2.056643 -0.0725,2.474552 -2e-5,3.673348 0.0483,9.150352 0.14486,16.431027 m 15.97043,-32.037204 c -0.41044,6.818789 -0.61566,13.659548 -0.61566,20.522287 0,1.825681 0.0604,4.245239 0.18107,7.258688 0.1449,2.991457 0.21728,5.026091 0.21731,6.103895 -3e-5,7.104705 -2.96958,11.415924 -8.90868,12.933661 l -1.81071,-2.50754 c 2.14871,-1.649718 3.47656,-3.409399 3.98354,-5.279053 0.74843,-2.683519 1.12265,-8.402478 1.12265,-17.156896 0,-9.392287 -0.48283,-16.409005 -1.44856,-21.050196 l 7.27904,-0.824846 m 1.55719,-9.205334 c 0,1.121835 -0.39837,2.100656 -1.19504,2.936461 -0.79674,0.813895 -1.91937,1.220822 -3.36793,1.220779 -1.23129,4.3e-5 -2.19698,-0.351895 -2.89713,-1.055804 -0.676,-0.725826 -1.014,-1.594668 -1.014,-2.606525 0,-1.099766 0.41044,-2.056585 1.23131,-2.870479 0.82085,-0.813811 1.95554,-1.220738 3.40409,-1.22078 1.183,4.2e-5 2.11249,0.362972 2.78852,1.088798 0.70011,0.703917 1.05018,1.539764 1.05018,2.50755 m 35.34498,41.242538 -5.68562,0.197964 c -0.28973,-1.077804 -0.43459,-2.100616 -0.43456,-3.068445 h -0.36216 c -2.96957,2.463556 -7.01347,3.69533 -12.13168,3.695331 -2.77644,-10e-7 -5.16656,-0.736865 -7.17043,-2.210599 -2.00385,-1.495727 -3.00575,-3.618341 -3.00575,-6.367849 0,-3.387375 1.56926,-6.103883 4.70781,-8.149525 3.13856,-2.067607 8.96898,-3.156414 17.49144,-3.266409 0.0724,-0.52789 0.10859,-1.132779 0.10861,-1.814668 -2e-5,-2.705494 -0.7967,-4.509161 -2.39009,-5.411023 -1.56933,-0.901813 -3.95946,-1.352727 -7.17044,-1.35276 -3.7904,3.3e-5 -7.52043,0.428954 -11.19011,1.28677 l 0.6156,-4.553183 c 3.62141,-0.945791 7.78603,-1.418709 12.49388,-1.418734 4.29737,2.5e-5 7.61701,0.813887 9.95887,2.441551 2.34183,1.605745 3.51274,4.355245 3.51279,8.248507 -5e-5,1.033844 -0.0604,2.914492 -0.18109,5.641983 -0.0966,2.705525 -0.14487,4.509198 -0.14485,5.411024 -2e-5,4.003281 0.32589,7.566633 0.97778,10.690065 m -6.40989,-6.400841 c -0.12074,-3.343387 -0.1811,-6.34584 -0.18106,-9.007372 -4.53886,1.4e-5 -7.99127,0.307959 -10.35726,0.923834 -3.95939,1.099813 -5.93909,3.20043 -5.93909,6.301859 0,2.991466 2.31766,4.487194 6.9531,4.487189 3.98354,5e-6 7.15828,-0.901832 9.52431,-2.70551"
           id="text3736"
           sodipodi:nodetypes="ccsscssccscccsccccsccsccsscsssccccscscccsccccscsssccscscccscccsscsssccccccscsccscsccscscsccccssc" /><path
           style="fill:url(#radialGradient6564);fill-opacity:1;fill-rule:evenodd;stroke:#323232;stroke-width:1;stroke-linecap:butt;stroke-linejoin:miter;stroke-miterlimit:4;stroke-dasharray:none;stroke-opacity:1"
           d="m 105.45673,18.675923 c 0,0 -17.244781,8.242538 -31.283896,10.061975 -14.039107,1.819435 -40.8124,3.639673 -46.127212,2.355358 -5.314804,-1.284315 -9.129977,-2.78406 -9.129977,-2.78406 l 1.105796,3.747387 -3.411928,2.995888 0.604887,1.069255 1.40352,0.105914 4.30981,0.534612 0.604891,1.926657 2.405354,0.216875 1.205046,4.065143 c 0,0 5.111743,0.428701 6.615932,0.428701 1.504189,0 4.513013,-0.211826 4.513013,-0.211826 l 0.09924,1.603855 1.1058,0.211838 v 1.820732 l -2.410085,2.143532 0.60489,0.105912 v 0.746456 c 0,0 -5.41635,0.43203 -7.622506,0.110963 -2.206144,-0.321084 -2.608554,-0.322804 -2.608554,-0.322804 l -0.198489,0.211841 -0.09924,0.963328 h 0.500925 l 0.198474,4.176089 11.133671,-0.4287 -0.803363,14.449903 -0.09925,1.815695 -9.4277,-0.534626 -0.09924,-3.853303 h 2.102918 l 0.203211,-1.497956 1.904434,-0.4287 0.302448,-0.423665 -7.12158,-1.714818 -5.415611,1.603855 0.902596,0.751503 h 0.902612 l 0.09924,1.286116 1.904445,0.105912 v 3.747387 l -2.102919,0.53463 0.401674,0.852369 0.500925,0.322785 v 2.889986 h 1.304284 v 13.375612 l -2.107646,0.322791 0.302437,3.853297 1.29956,0.216875 -0.198476,8.775868 5.718048,0.1059 -1.205036,-8.669926 8.624341,-0.211842 -0.600161,4.705689 -0.80336,3.318679 8.723576,0.10591 0.09924,-8.558977 6.015767,-0.534612 -0.29772,5.45717 -0.203201,3.207719 h 5.117899 l -0.20321,-8.775853 0.704123,0.110964 0.198485,-4.176105 h -0.803361 l -0.297723,-1.714818 -0.500924,-4.922556 0.198485,-5.668996 h 1.101071 v -3.424601 l -1.403517,0.10591 0.203199,-4.039919 1.630357,-0.161388 0.07561,-1.311334 0.926236,-0.136182 0.949857,-0.721236 -5.713334,-1.175154 -5.666072,1.255848 0.552898,0.907857 0.600162,-0.05044 0.699398,-0.02522 0.1276,1.654296 1.578368,-0.07565 0.02835,3.58095 -6.795506,-0.15635 0.226837,-3.828095 0.222099,-3.480075 v -4.574549 l 0.20321,-4.81663 13.609913,-0.696015 16.194854,-0.933059 0.151215,3.076591 -0.576523,7.383817 -0.250464,6.874418 -5.963796,-0.105915 -0.02835,-4.816629 2.206879,-0.08069 0.09925,-1.361781 0.902596,-0.136178 -0.04726,-0.267302 0.90261,-0.05044 0.500912,-0.670795 -6.743521,-1.578651 -6.719895,1.44247 0.477288,0.832193 0.751385,-0.05549 v 0.378277 h 0.926233 v 1.523161 l 1.980057,0.02522 -0.02364,4.226529 h -2.003678 l -0.02835,0.963331 0.704124,0.08069 -0.07561,3.666695 1.479132,0.08071 -0.174851,14.530598 -1.956419,0.398445 0.02363,0.696015 h 0.680499 v 3.72217 h 1.124707 l -0.297722,5.083953 -0.378048,4.438358 7.121569,0.1866 -0.226828,-3.853298 -0.524546,-3.207722 -0.103963,-2.784073 6.044121,-0.105914 -0.174851,4.307231 -0.02835,4.549316 3.411932,0.26731 4.635874,-0.1866 1.455507,-0.42872 -0.80337,-2.436048 -0.198478,-3.828092 -0.378047,-2.728585 5.765306,-0.211826 -0.250459,3.343904 -0.02363,5.245327 2.30612,0.21183 2.282498,-0.0504 1.101077,-0.348 -0.652135,-4.978015 -0.222116,-3.747394 0.978216,-0.105915 0.02363,-3.343902 0.274093,-0.05548 -0.04728,-0.721233 h -1.129421 l -0.226827,-2.461285 -0.09924,-10.677284 0.850626,-0.02522 v -3.505308 l 0.354416,0.05549 v -0.696017 l -1.25702,-0.110961 0.02835,-4.06514 2.102917,-0.186605 -0.122861,-1.366825 0.926237,-0.08069 -0.052,-0.267314 1.228675,-0.61532 -6.24261,-1.255849 -6.341832,1.286115 0.401673,0.746456 0.978213,-0.0807 0.05199,0.32279 h 0.826987 l 0.04726,1.603855 2.05567,-0.02522 0.174848,3.934007 -7.268076,-0.05547 -0.850624,-5.911092 -0.680487,-3.132083 -0.548183,-5.618557 0.326073,-3.288431 14.488882,-1.099496 0.04726,-4.897336 0.727755,-0.186608 -0.04724,-0.746454 -0.552908,-0.322787 c -1.14e-4,0 -7.922562,1.174894 -10.429546,1.442468 -0.706297,0.07537 -0.652807,0.07042 -1.228673,0.13113 l -0.07561,-0.907852 -2.996075,-1.568554 0.03781,-1.825778 1.030198,-0.03027 0.0756,-2.51171 c 0,0 6.139781,-0.402974 8.421138,-0.938108 2.281355,-0.535141 5.51485,-1.069244 5.51485,-1.069244 l 1.531113,-4.145836 3.033892,-0.882633 0.250451,-0.696015 6.86639,-1.901424 0.77974,-0.640542 -2.60858,-5.699265 0.25048,-1.286117 1.32792,-0.696013 0.95457,-2.915207 z m -32.989856,21.727805 -0.03781,2.072926 1.554746,0.06556 -0.09924,1.96701 -3.048061,1.997266 -0.189019,0.57497 1.228671,0.01009 -0.0095,0.484186 -9.31428,0.453923 0.06143,-1.37691 0.425312,-0.685933 0.02835,-0.438784 0.0095,-0.948193 0.264629,-0.630458 0.09924,-0.509392 v -0.363141 l 0.401684,-1.603871 z m -19.479186,1.765256 -0.226835,1.392043 0.727746,0.857404 -0.04725,1.497955 0.675763,1.044022 -0.17485,1.230631 0.500923,0.721234 -9.503313,0.373227 -0.02363,-0.317741 1.101086,-0.13618 0.05197,-0.403482 -2.405367,-1.3063 -0.127589,-2.088047 1.15306,-0.05547 0.09925,-2.249446 z m 14.063574,32.107534 5.765308,0.373224 -0.198471,7.762091 0.751371,6.365024 -6.115005,-0.211839 z m -38.608682,0.322786 9.229227,0.479138 -0.803361,5.35126 v 4.498891 l 0.652137,2.511709 -9.026014,0.428704 z m 59.066078,0.05044 V 87.92449 l -5.864545,0.428706 -0.203201,-7.010602 -0.652148,-6.531449 z m -44.421242,0.29757 6.819132,0.02522 0.07089,12.306371 -6.365468,0.110961 -0.326075,-3.989484 -0.02363,-3.959223 z"
           id="path4735" /></g><g
         style="overflow:scroll"
         id="g1"
         transform="matrix(0.05302483,0,0,0.05302483,65.563375,2.1064421)"><path
           d="M 5.46,4.23 H 5.21 c -0.1,1.02 -0.24,2.26 -2,2.26 H 2.4 C 1.93,6.49 1.91,6.42 1.91,6.09 V 0.78 c 0,-0.34 0,-0.48 0.94,-0.48 H 3.18 V 0 C 2.82,0.03 1.92,0.03 1.51,0.03 1.12,0.03 0.34,0.03 0,0 V 0.3 H 0.23 C 1,0.3 1.02,0.41 1.02,0.77 V 6.02 C 1.02,6.38 1,6.49 0.23,6.49 H 0 V 6.8 h 5.19 z"
           transform="matrix(45,0,0,45,40,47.65)"
           id="path1" /><path
           d="M 2.81,0.16 C 2.77,0.04 2.75,0 2.62,0 2.49,0 2.46,0.04 2.42,0.16 L 0.81,4.24 C 0.74,4.41 0.62,4.72 0,4.72 V 4.97 H 1.55 V 4.72 c -0.31,0 -0.5,-0.14 -0.5,-0.34 0,-0.05 0.01,-0.07 0.03,-0.14 0,0 0.34,-0.86 0.34,-0.86 H 3.4 L 3.8,4.4 c 0.02,0.04 0.04,0.09 0.04,0.12 0,0.2 -0.38,0.2 -0.57,0.2 V 4.97 H 5.24 V 4.72 H 5.1 c -0.47,0 -0.52,-0.07 -0.59,-0.27 0,0 -1.7,-4.29 -1.7,-4.29 z M 2.41,0.87 3.3,3.13 H 1.52 Z"
           transform="matrix(45,0,0,45,151.6,40)"
           id="path2" /><path
           d="M 6.27,0 H 0.18 C 0.18,0 0,2.24 0,2.24 H 0.24 C 0.38,0.63 0.53,0.3 2.04,0.3 c 0.18,0 0.44,0 0.54,0.02 0.21,0.04 0.21,0.15 0.21,0.38 v 5.25 c 0,0.34 0,0.48 -1.05,0.48 H 1.34 V 6.74 C 1.75,6.71 2.76,6.71 3.22,6.71 c 0.46,0 1.49,0 1.9,0.03 V 6.43 H 4.72 C 3.67,6.43 3.67,6.29 3.67,5.95 V 0.7 c 0,-0.2 0,-0.34 0.18,-0.38 C 3.96,0.3 4.23,0.3 4.42,0.3 c 1.5,0 1.65,0.33 1.79,1.94 H 6.46 C 6.46,2.24 6.27,0 6.27,0 Z"
           transform="matrix(45,0,0,45,356.35,50.35)"
           id="path3" /><path
           d="M 6.16,4.2 H 5.91 C 5.66,5.73 5.43,6.46 3.72,6.46 H 2.4 C 1.93,6.46 1.91,6.39 1.91,6.06 V 3.4 H 2.8 c 0.97,0 1.08,0.32 1.08,1.17 H 4.13 V 1.93 H 3.88 C 3.88,2.78 3.77,3.09 2.8,3.09 H 1.91 V 0.7 C 1.91,0.37 1.93,0.3 2.4,0.3 h 1.28 c 1.53,0 1.79,0.55 1.95,1.94 H 5.88 L 5.6,0 H 0 V 0.3 H 0.23 C 1,0.3 1.02,0.41 1.02,0.77 V 5.99 C 1.02,6.35 1,6.46 0.23,6.46 H 0 v 0.31 h 5.74 z"
           transform="matrix(45,0,0,45,602.5,150.25)"
           id="path4" /><path
           d="m 3.76,2.95 1.37,-2 C 5.34,0.63 5.68,0.31 6.57,0.3 V 0 H 4.19 v 0.3 c 0.4,0.01 0.62,0.23 0.62,0.46 0,0.1 -0.02,0.12 -0.09,0.23 0,0 -1.14,1.68 -1.14,1.68 L 2.3,0.75 C 2.28,0.72 2.23,0.64 2.23,0.6 2.23,0.48 2.45,0.31 2.87,0.3 V 0 C 2.53,0.03 1.8,0.03 1.42,0.03 1.11,0.03 0.49,0.02 0.12,0 v 0.3 h 0.19 c 0.55,0 0.74,0.07 0.93,0.35 0,0 1.83,2.77 1.83,2.77 L 1.44,5.83 C 1.3,6.03 1,6.49 0,6.49 V 6.8 H 2.38 V 6.49 C 1.92,6.48 1.75,6.21 1.75,6.03 1.75,5.94 1.78,5.9 1.85,5.79 L 3.26,3.7 4.84,6.08 c 0.02,0.04 0.05,0.08 0.05,0.11 0,0.12 -0.22,0.29 -0.65,0.3 V 6.8 C 4.59,6.77 5.32,6.77 5.69,6.77 c 0.42,0 0.88,0.01 1.3,0.03 V 6.49 H 6.8 c -0.52,0 -0.73,-0.05 -0.94,-0.36 0,0 -2.1,-3.18 -2.1,-3.18 z"
           transform="matrix(45,0,0,45,845.95,47.65)"
           id="path5" /></g><text
         xml:space="preserve"
         style="font-style:normal;font-weight:normal;font-size:22px;line-height:1.25;font-family:sans-serif;white-space:pre;inline-size:0;fill:#000000;fill-opacity:1;stroke:none;stroke-width:0.264583"
         x="100.21472"
         y="133.79317"
         id="text1"
         transform="translate(-50.722412,-111.30573)"><tspan
           id="tspan1"
           style="font-style:normal;font-variant:normal;font-weight:normal;font-stretch:normal;font-size:22px;line-height:1.25;font-family:'JetBrains Mono';-inkscape-font-specification:'JetBrains Mono';stroke-width:0.264583"
           x="100.21472"
           y="133.79317">+</tspan></text></g></g></svg>
